<?xml version="1.0" encoding="utf-8"?>
<!-- Generator: Adobe Illustrator 16.0.0, SVG Export Plug-In . SVG Version: 6.00 Build 0)  -->
<!DOCTYPE svg PUBLIC "-//W3C//DTD SVG 1.1//EN" "http://www.w3.org/Graphics/SVG/1.1/DTD/svg11.dtd" [
	<!ENTITY st0 "fill-rule:evenodd;clip-rule:evenodd;fill:#ED1C24;">
]>
<svg version="1.1" id="Layer_1" xmlns="http://www.w3.org/2000/svg" xmlns:xlink="http://www.w3.org/1999/xlink" x="0px" y="0px"
	 width="537.051px" height="513.218px" viewBox="0 0 537.051 513.218" style="enable-background:new 0 0 537.051 513.218;"
	 xml:space="preserve">
<path style="&st0;" d="M536.701,223.622c0,56.068,0.091,112.139-0.119,168.207c-0.024,6.779-2.087,13.528-2.468,20.333
	c-0.781,13.934-1.266,27.892-1.484,41.846c-0.17,10.773,0.584,21.666-2.969,32.016c-3.041,8.857-8.834,15.772-18.069,18.638
	c-14.757,4.58-29.775,6.743-45.416,6.756c-43.931,0.036-87.858,1.307-131.792,1.672c-34.357,0.285-68.721,0.034-103.081-0.149
	c-22.266-0.119-44.53-0.545-66.796-0.835c-23.429-0.306-46.875-0.153-70.28-1.058c-20.599-0.797-41.188-2.408-61.706-4.431
	c-7.56-0.746-15.063-3.271-20.563-9.45C7.805,492.5,5.48,487.2,5.59,480.925c0.117-6.688,0.297-13.377,0.453-20.065
	c0.01-0.436,0.166-0.908,0.047-1.3c-4.69-15.424-2.005-31.244-2.284-46.866C3.331,386.05,3.919,359.39,3.643,332.74
	c-0.479-46.272-0.44-92.574-2.154-138.805C-0.624,136.98,0.012,80.046,0.407,23.1C0.438,18.682,2.318,14.066,4.2,9.935
	c1.69-3.713,5.258-5.661,9.563-5.918c11.874-0.709,23.733-1.733,35.616-2.195c19.909-0.774,39.832-1.69,59.75-1.708
	C238.745,0,368.361,0.217,497.979,0c13.776-0.023,23.535,6.188,31.739,15.979c1.994,2.379,3.063,5.94,3.551,9.113
	c6.371,41.409,2.581,83.117,3.383,124.692c0.475,24.604,0.087,49.224,0.087,73.837C536.726,223.622,536.713,223.622,536.701,223.622
	z M131.085,133.091c0,3.688-0.001,6.593,0,9.498c0.009,29.562,0.037,59.124,0.007,88.686c-0.005,5.178,1.159,9.538,6.575,11.603
	c0.648,0.247,1.233,0.784,1.72,1.305c2.741,2.94,5.94,4.198,9.814,2.554c4.174-1.771,5.659-5.353,5.64-9.534
	c-0.09-20.237-0.117-40.476-0.515-60.708c-0.261-13.231-1.092-26.453-1.732-39.676c-0.119-2.468,0.45-3.728,3.313-3.721
	c16.161,0.038,32.324-0.252,48.483-0.083c10.447,0.109,17.362,5.545,21.195,15.204c5.622,14.165,7.517,29.033,7.531,44.02
	c0.015,17.15-1.112,34.304-1.857,51.451c-0.232,5.356,2.534,9.546,7.27,10.35c4.563,0.775,8.785-2.524,9.863-7.834
	c0.433-2.132,0.818-4.306,0.893-6.473c0.484-14.105,1.095-28.212,1.246-42.323c0.193-17.968-1.361-35.752-7.733-52.774
	c-7.561-20.198-20.51-29.253-42.049-29.324c-14.851-0.049-29.702,0.126-44.553,0.173c-1.523,0.004-3.047-0.18-4.708-0.286
	c-0.367-8.051-0.708-15.542-1.058-23.205c3.112-0.396,5.421-0.627,7.708-0.991c8.591-1.367,17.227-2.524,25.743-4.264
	c5.355-1.094,9.788-4.299,11.636-9.612c2.039-5.861,3.666-11.921,4.813-18.018c0.978-5.199,1.021-10.574,1.566-16.903
	c11.533,0,22.872,0.009,34.209-0.004c3.931-0.004,7.872,0.091,11.792-0.133c4.935-0.282,8.376-3.811,8.458-8.318
	c0.08-4.34-3.031-7.869-7.702-8.586c-1.866-0.287-3.771-0.487-5.655-0.463c-10.042,0.128-20.082,0.429-30.124,0.505
	c-39.163,0.295-78.326,0.463-117.487,0.812c-18.484,0.165-36.965,0.605-55.447,0.969c-6.234,0.123-10.078,3.368-10.244,8.445
	c-0.165,5.03,3.482,8.555,9.739,8.99c4.059,0.282,8.15,0.134,12.227,0.14c10.004,0.014,20.009,0.004,29.813,0.004
	c0.779,8.447,1.924,17.067,2.285,25.721c0.45,10.801,9.522,17.647,18.974,18.96c9.604,1.334,19.193,2.775,29.633,4.291
	c-0.362,6.94-0.742,14.236-1.147,22.009c-2.006,0-3.578-0.05-5.146,0.008c-18.431,0.678-36.873-0.988-55.313,2.145
	c-17.133,2.912-30.39,10.414-36.743,26.878c-3.36,8.708-5.986,18.141-6.56,27.395c-1.413,22.785-1.494,45.654-2,68.492
	c-0.133,5.981,3.298,10.075,8.285,10.477c5.218,0.42,9.186-3.257,9.984-9.387c0.224-1.724,0.204-3.488,0.194-5.233
	c-0.046-7.717-0.255-15.435-0.175-23.151c0.175-16.998-0.942-34.063,2.86-50.876c4.047-17.902,10.535-25.743,28.727-27.412
	c11.119-1.02,22.309-1.354,33.476-1.743C116.045,132.887,123.299,133.091,131.085,133.091z M469.623,165.874
	c-2.022,6.219-4.525,11.463-5.376,16.962c-3.199,20.687-3.735,41.345,2.175,61.792c1.913,6.617,4.946,9.737,10.151,8.94
	c5.012-0.768,7.632-5.138,7.012-11.719c-0.068-0.722-0.123-1.466-0.337-2.151c-4.722-15.058-3.609-30.521-2.978-45.905
	c0.226-5.506,0.929-11.153,4.1-15.665c6.189,3.193,11.862,6.482,17.832,9.09c5.141,2.244,10.682-0.18,12.458-4.731
	c1.831-4.69-0.389-8.732-5.917-11.37c-4.509-2.152-8.879-4.593-14.053-7.293c2.836-2.722,4.911-4.722,6.995-6.714
	c3.895-3.72,7.991-7.252,11.64-11.199c4.267-4.616,4.292-9.684,0.578-13.232c-3.763-3.596-8.408-3.07-13.128,1.31
	c-6.482,6.015-13.048,11.941-19.697,18.015c-7.417-8.643-11.981-18.542-13.919-29.634c-0.537-3.074,1.571-4.122,4.274-3.998
	c6.245,0.287,12.483,0.872,18.729,0.955c8,0.107,16.012,0.005,24.006-0.333c4.359-0.185,7.52-3.247,8.194-7.213
	c0.631-3.702-0.703-6.816-3.957-8.477c-1.945-0.993-4.455-1.194-6.714-1.209c-15.08-0.098-30.16-0.051-45.052-0.051
	c-1.03-6.765-0.318-7.884,5.245-8.636c6.913-0.934,13.844-1.764,20.785-2.44c11.565-1.125,12.812-8.75,11.628-17.388
	c-0.539-3.943-3.491-6.327-7.536-6.846c-3.935-0.505-5.879,1.865-6.881,5.264c-1.539,5.223-5.527,7.37-10.436,7.805
	c-4.298,0.38-8.823,0.786-12.909-0.21c-1.881-0.458-2.963-4.234-4.386-6.519c-2.502-4.019-7.954-5.091-11.025-1.44
	c-1.835,2.181-2.734,5.657-2.911,8.619c-0.412,6.896-0.132,13.832-0.132,20.095c-36.74,0.613-73.46,1.225-111.362,1.857
	c0-5.473,0.152-11.263-0.048-17.041c-0.167-4.845-3.55-8.491-7.916-9.089c-4.146-0.567-8.08,2.008-9.53,6.626
	c-0.684,2.178-0.938,4.547-1.029,6.844c-0.16,4.023-0.045,8.058-0.045,12.231c-3.337,0-6.165,0-9.271,0
	c-0.307-6.32-0.514-12.402-0.925-18.47c-0.336-4.949-3.898-8.332-8.419-8.294c-4.64,0.038-8.067,3.332-8.497,8.244
	c-0.126,1.447-0.089,2.91-0.091,4.366c-0.01,15.875-0.01,31.75-0.019,47.624c-0.001,3.039-0.377,6.126,0.038,9.105
	c0.594,4.263,3.756,6.924,7.652,7.048c4.34,0.138,7.383-1.914,8.484-6.049c0.736-2.762,0.784-5.728,0.965-8.613
	c0.36-5.748,0.6-11.504,0.888-17.234c3.619,0,6.735,0,10.272,0c0.949,23.634,1.885,46.929,2.827,70.416c-4.994,0-8.989,0-12.956,0
	c-0.355-7.308-0.57-14.283-1.08-21.235c-0.309-4.212-2.7-7.063-6.935-7.886c-3.838-0.747-7.085,0.702-8.842,4.114
	c-1.008,1.956-1.314,4.461-1.316,6.719c-0.017,21.41,0.143,42.82,0.139,64.23c-0.001,3.912-0.79,7.831-0.704,11.735
	c0.098,4.473,3.393,7.849,7.491,8.395c3.958,0.527,7.813-2.132,9.157-6.47c0.469-1.512,0.797-3.118,0.865-4.695
	c0.35-8.135,0.641-16.273,0.856-24.413c0.109-4.174,0.019-8.353,0.019-12.702c4.832,0,9.125,0,13.8,0
	c0,9.112-0.103,17.939,0.038,26.762c0.087,5.52,0.567,11.032,0.82,16.551c0.155,3.407,1.98,5.007,5.279,5.001
	c2.178-0.003,4.364-0.051,6.529-0.259c2.969-0.285,4.781-1.898,5.111-4.975c0.556-5.175,1.671-10.358,1.578-15.521
	c-0.263-14.686-1.127-29.359-1.545-44.044c-0.487-17.166-0.786-34.338-1.095-51.509c-0.111-6.195-0.018-12.394-0.018-18.509
	c36.728-2.673,73.182-3.057,110.002-1.072C450.72,138.133,458.532,153.131,469.623,165.874z M221.041,370.895
	c13.708,0,26.797,0.099,39.883-0.046c5.54-0.062,9.294-3.744,9.253-8.451c-0.041-4.794-3.808-8.51-9.183-8.561
	c-31.438-0.3-62.876-0.632-94.314-0.573c-3.803,0.007-7.948,1.713-11.312,3.689c-3.704,2.176-4.438,7.417-2.551,10.895
	c1.852,3.412,5.748,5.087,9.67,4.105c13.561-3.395,27.075,0.307,40.738-0.388c0,4.922,0,9.2,0,13.744
	c-8.604,0-16.894-0.196-25.168,0.074c-4.913,0.16-9.885,0.671-14.68,1.714c-6.723,1.459-11.386,5.859-12.022,12.762
	c-1.011,10.978-1.667,22.037-1.583,33.056c0.139,18.44,0.899,36.879,1.579,55.312c0.159,4.326,0.725,8.702,1.76,12.894
	c0.351,1.423,2.588,2.979,4.204,3.313c1.48,0.308,4.321-0.52,4.766-1.592c1.805-4.352,3.574-8.913,4.119-13.545
	c0.687-5.835,0.166-11.812,0.166-18.458c12.503,0,24.414,0,36.548,0c0,2.859-0.207,6.214,0.047,9.535
	c0.419,5.483,0.945,10.976,1.8,16.404c0.51,3.237,2.892,4.826,6.229,5.038c3.182,0.201,4.663-1.546,5.813-4.213
	c2.563-5.938,4.424-11.95,3.735-18.548c-0.234-2.245-0.038-4.534-0.038-6.927c11.625,0,22.587,0,33.863,0
	c0,1.032-0.002,2.62,0,4.207c0.01,5.97-0.354,11.975,0.216,17.892c0.225,2.331,2.163,5.871,3.982,6.351
	c2.633,0.692,7.298,0.082,8.531-1.725c2.193-3.214,3.32-7.726,3.392-11.722c0.289-16.4-0.871-32.873,0.245-49.199
	c0.792-11.575,0.869-22.866-1.139-34.235c-1.16-6.563-4.813-11.445-10.843-13.747c-5.059-1.931-10.559-3.18-15.956-3.638
	c-7.161-0.606-14.411-0.149-21.75-0.149C221.041,380.604,221.041,376.305,221.041,370.895z M412.375,289.38
	c18.501,0,36.549-0.012,54.597,0.003c15.146,0.013,30.292,0.128,45.438,0.053c5.519-0.027,9.287-3.564,9.432-8.332
	c0.142-4.71-3.494-8.262-9.016-8.785c-0.869-0.083-1.746-0.104-2.618-0.112c-16.307-0.174-32.612-0.473-48.919-0.482
	c-42.233-0.026-84.469-0.094-126.7,0.235c-12.044,0.095-24.11,1.176-36.102,2.431c-5.457,0.572-8.602,5.266-7.963,9.747
	c0.709,4.981,4.66,7.593,10.67,7.14c8.123-0.613,16.244-1.567,24.376-1.676c21.258-0.283,42.521-0.187,63.781-0.24
	c1.561-0.004,3.122,0,5.215,0c0,7.145,0.115,13.803-0.144,20.447c-0.033,0.843-2.012,2.285-3.11,2.306
	c-8.873,0.165-17.751,0.07-26.628,0.029c-12.902-0.062-25.83-0.644-38.699-0.016c-6.672,0.325-13.496,2.096-19.782,4.459
	c-6.271,2.359-9.76,7.928-9.83,14.766c-0.177,17.037-0.274,34.084,0.111,51.114c0.148,6.57,2.4,12.752,8.537,17.418
	c1.68-2.33,3.888-4.188,4.485-6.468c1.355-5.173,2.408-10.524,2.708-15.854c0.76-13.497,1.084-27.021,1.486-40.537
	c0.17-5.73,0.202-6.31,6.117-6.584c15.978-0.742,31.971-1.488,47.961-1.543c27.655-0.095,55.313,0.442,82.97,0.494
	c14.262,0.027,28.525-0.398,42.787-0.663c4.105-0.075,6.47,1.232,6.705,5.917c0.551,11.008,1.39,22.007,2.367,32.987
	c0.384,4.307,1.352,8.574,2.274,12.812c0.198,0.908,1.272,2.131,2.091,2.258c0.832,0.128,2.264-0.689,2.703-1.491
	c1.593-2.91,3.232-5.878,4.219-9.021c4.119-13.135,5.87-26.438,3.851-40.289c-1.674-11.478-6.855-18.769-18.412-19.853
	c-12.551-1.18-25.277-0.649-37.926-0.58c-15.717,0.085-31.434,0.467-47.15,0.694c-0.542,0.008-1.087-0.266-1.882-0.474
	C412.375,304.407,412.375,297.194,412.375,289.38z M188.63,287.69c0-0.017,0-0.033,0-0.05c18.922,0,37.845,0.042,56.768-0.028
	c5.062-0.02,9.195,1.792,10.516,6.703c1.095,4.072,1.688,8.692,0.902,12.761c-1.257,6.51-3.257,7.496-10.086,7.43
	c-29.115-0.283-58.229-0.737-87.344-0.844c-10.354-0.038-20.693,0.964-29.971,6.275c-4.331,2.479-8.534,5.411-9.239,10.903
	c-0.885,6.897-1.742,13.828-2.017,20.768c-0.322,8.119-0.094,16.265,0.058,24.396c0.24,12.908,0.924,25.814,0.868,38.719
	c-0.117,27.359-0.594,54.717-0.913,82.075c-0.057,4.826,3.119,8.832,7.407,9.414c4.54,0.616,8.544-2.016,9.765-6.811
	c0.676-2.654,1.036-5.453,1.078-8.194c0.392-25.764,0.785-51.529,0.971-77.296c0.118-16.454-0.147-32.911-0.172-49.367
	c-0.01-6.551,0.039-13.108,0.301-19.652c0.164-4.099,1.613-7.256,6.554-7.646c7.807-0.616,15.596-2.273,23.382-2.208
	c27.357,0.229,54.707,1.136,82.063,1.521c15.326,0.216,26.122-10.595,26.017-26.042c-0.051-7.386-0.918-14.782-1.703-22.143
	c-1.05-9.849-7.86-16.581-17.641-17.45c-8.102-0.721-16.229-1.541-24.349-1.584c-32.619-0.171-65.241-0.178-97.859,0.104
	c-4.141,0.036-8.561,1.547-12.311,3.443c-3.732,1.888-4.575,5.87-3.212,9.914c1.197,3.551,5.032,5.756,9.07,5.431
	c1.88-0.15,3.755-0.515,5.633-0.518C151.654,287.675,170.143,287.69,188.63,287.69z M413.149,162.765
	c0.186-3.956,0.453-7.833,0.521-11.713c0.057-3.261,1.275-4.035,4.621-3.614c4.879,0.613,9.884,0.57,14.813,0.343
	c5-0.231,8.63-4.375,8.359-8.871c-0.28-4.633-3.091-6.885-8.688-6.965c-2.62-0.038-5.241-0.04-7.86-0.127
	c-16.282-0.543-32.575-1.752-48.843-1.47c-14.709,0.255-19.981,6.195-20.457,18.939c-0.677,18.172-1.215,36.353-1.498,54.534
	c-0.141,9.005,0.542,18.02,0.633,27.033c0.106,10.562,4.85,16.607,15.351,18.313c5.859,0.951,11.859,1.782,17.761,1.588
	c15.966-0.522,31.935-1.372,47.849-2.719c2.949-0.25,6.702-2.821,8.192-5.41c1.754-3.046-0.161-6.459-3.152-9.069
	c-3.48-3.036-7.204-4.745-11.796-4.711c-5.316,0.04-10.635,0.009-15.887,0.009c0-4.98,0-9.263,0-13.891
	c4.107,0,7.884,0.125,11.649-0.023c11.817-0.464,18.295-5.796,19.05-16.681c0.541-7.804,0.431-15.738-0.313-23.525
	c-0.837-8.751-6.363-12.574-15.05-12.024C423.64,163.013,418.839,162.765,413.149,162.765z M413.521,349.771
	c-0.015-0.222-0.029-0.443-0.044-0.666c-10.577,0.725-21.172,1.262-31.724,2.252c-5.797,0.544-11.512,1.774-15.612,6.679
	c-5.016,6-8.09,12.867-8.481,20.621c-1.061,21.054-1.822,42.122-2.722,63.185c-0.328,7.705-0.256,15.463-1.18,23.098
	c-1.227,10.142-0.619,19.995,2.425,29.7c0.885,2.818,2.001,5.694,5.899,5.16c3.715-0.508,6.198-2.634,6.909-6.27
	c0.607-3.112,0.885-6.328,0.939-9.504c0.391-22.632-1.056-45.25,3.402-67.814c2.313-11.708,1.204-24.075,1.853-36.133
	c0.312-5.78,1.79-11.455,9.976-11.63c15.689-0.335,31.374-0.814,47.063-1.132c2.675-0.054,4.028,1.268,4.117,4.327
	c0.382,13.081,0.547,26.198,1.725,39.218c1.003,11.084,3.46,22.028,4.913,33.081c0.612,4.648,1.351,9.694,0.2,14.08
	c-3.063,11.687-2.884,22.906,2.212,33.867c0.812,1.748,2.781,2.957,4.216,4.415c0.979-1.476,2.561-2.847,2.837-4.442
	c1.797-10.414,4.372-20.848,4.641-31.328c0.314-12.279-1.8-24.601-2.246-36.926c-0.62-17.137-0.667-34.293-0.963-51.44
	c-0.027-1.602,0.035-3.214-0.134-4.802c-0.583-5.449-2.43-10.581-7.51-13.049c-4.47-2.172-9.469-3.769-14.387-4.371
	C425.821,349.21,419.637,349.771,413.521,349.771z M56.946,418.457c-0.044,0-0.089,0-0.133,0c0,22.704,0.013,45.408-0.01,68.112
	c-0.005,4.925,2.298,8.285,6.407,9.104c4.322,0.86,8.664-1.257,10.234-5.513c0.83-2.248,1.083-4.819,1.086-7.247
	c0.067-41.775,0.065-83.551,0.04-125.327c-0.001-2.901-0.112-5.826-0.484-8.701c-2.212-17.085-2.926-34.195-0.376-51.284
	c0.802-5.377,0.646-10.104-2.332-14.971c-2.803-4.583-5.667-7.084-9.736-6.313c-4.295,0.813-7.205,4.431-7.307,9.572
	c-0.101,5.088-0.016,10.186,0.191,15.271c0.761,18.724,1.951,37.436,2.327,56.165C57.263,377.695,56.946,398.079,56.946,418.457z
	 M484.138,39.866c0-3.997,0.074-6.871-0.016-9.739c-0.146-4.633,0.025-9.332-0.718-13.875c-0.806-4.921-5.517-8.07-9.815-7.403
	c-4.852,0.752-7.356,4.679-7.158,10.298c0.233,6.618,0.055,13.25,0.055,20.921c-8.593-0.997-16.067-1.675-23.451-2.904
	c-1.26-0.21-2.848-2.687-3.044-4.271c-0.623-5.03-0.334-10.177-1.018-15.195c-0.631-4.633-4.691-7.55-8.954-7.246
	c-4.478,0.319-7.767,3.911-7.858,8.869c-0.089,4.798-0.069,9.605,0.101,14.401c0.409,11.576,6.001,18.44,17.457,20.544
	c8.521,1.564,17.186,2.347,26.059,3.514c0.209,0.987,0.618,2.381,0.772,3.802c0.172,1.583-0.034,3.21,0.182,4.783
	c0.663,4.842,2.561,6.134,8.724,6.148c5.334,0.012,6.484-0.899,7.196-5.904c0.443-3.122,0.772-6.259,1.173-9.547
	c1.848-0.094,3.449-0.026,4.998-0.278c8.563-1.388,17.248-2.333,25.63-4.458c6.702-1.7,9.987-7.052,10.423-14.037
	c0.331-5.295-1.878-9.07-6.179-10.196c-4.238-1.11-8.005,1.188-10.378,5.896c-0.684,1.356-2.143,3.025-3.46,3.24
	C498.158,38.324,491.39,38.989,484.138,39.866z M333.741,53.631c0,3.255-0.156,6.29,0.035,9.302
	c0.306,4.828,4.253,8.575,8.809,8.624c4.528,0.047,7.893-3.243,8.41-8.347c0.318-3.147,0.495-6.31,0.773-9.967
	c4.877,0,9.515,0.224,14.124-0.045c10.729-0.625,21.02-2.844,25.101-14.408c1.928-5.464,2.278-11.624,2.518-17.502
	c0.196-4.807-3.918-8.288-8.395-8.261c-4.446,0.027-7.946,3.521-8.431,8.391c-0.244,2.456-0.622,4.902-0.766,7.363
	c-0.247,4.253-2.815,6.458-6.659,6.683c-5.75,0.336-11.533,0.087-17.309,0.087c-0.391-5.886-0.461-11.412-1.261-16.83
	c-0.328-2.223-1.83-4.64-3.508-6.21c-2.65-2.482-6.081-2.717-9.328-0.83c-3.872,2.25-4.862,5.9-4.612,10.109
	c0.271,4.562,0.458,9.128,0.69,13.87c-2.6,0-4.344,0.07-6.08-0.011c-14.399-0.668-14.423-2.194-13.921-13.888
	c0.219-5.11-2.931-8.792-7.3-9.431c-4.193-0.612-8.574,2.18-9.624,7.102C293.813,34.4,299.29,47.94,314.99,51.604
	C320.877,52.977,327.089,52.957,333.741,53.631z M103.529,427.944c-0.094,0.003-0.188,0.005-0.282,0.008
	c0-2.764,0.151-5.537-0.03-8.288c-0.437-6.662-0.702-13.36-1.667-19.951c-0.681-4.647-4.903-7.378-9.183-6.933
	c-4.324,0.451-7.38,3.919-7.545,8.697c-0.065,1.887,0.057,3.781,0.144,5.669c0.849,18.432,1.899,36.856,2.473,55.296
	c0.242,7.762-0.392,15.563-0.868,23.332c-0.293,4.79,1.837,8.705,5.965,9.962c4.228,1.288,8.461-0.493,10.27-5.05
	c1.307-3.292,2.409-6.969,2.346-10.45C104.838,462.802,104.111,445.374,103.529,427.944z M44.283,413.428
	c-0.123,0.005-0.245,0.008-0.367,0.013c0-1.747,0.008-3.493-0.003-5.24c-0.011-1.746,0.113-3.51-0.093-5.234
	c-0.632-5.292-4.532-8.945-9.169-8.749c-4.766,0.202-8.265,3.988-8.418,9.396c-0.108,3.779-0.011,7.569,0.141,11.349
	c0.866,21.65,1.766,43.3,2.694,64.948c0.074,1.729,0.242,3.506,0.733,5.152c1.159,3.887,3.819,6.111,7.964,6.24
	c3.937,0.122,7.146-2.304,8.244-6.439c0.476-1.793,0.612-3.738,0.551-5.603C45.839,457.314,45.052,435.372,44.283,413.428z
	 M44.126,330.809c0.028,0,0.056,0,0.084,0c0-9.318,0.209-18.642-0.074-27.951c-0.188-6.202-0.782-12.429-1.747-18.558
	c-0.845-5.374-4.842-8.342-9.353-7.815c-4.593,0.535-7.728,4.284-7.582,9.629c0.095,3.469,1.064,6.919,1.106,10.383
	c0.165,13.825,0.089,27.652,0.164,41.479c0.05,9.171,0.157,18.342,0.334,27.51c0.07,3.653,1.691,6.953,5.24,7.736
	c2.658,0.585,6.438,0.315,8.376-1.243c1.997-1.606,3.211-5.206,3.302-7.982C44.337,352.943,44.126,341.873,44.126,330.809z
	 M101.505,295.774c-0.094,0.001-0.189,0.003-0.283,0.004c-0.176-1.883-0.419-3.763-0.509-5.648
	c-0.097-2.034,0.035-4.081-0.086-6.112c-0.367-6.213-3.73-10.048-8.744-10.077c-5.185-0.032-8.693,4.031-8.766,10.406
	c-0.073,6.404-0.039,12.812,0.064,19.216c0.217,13.531,0.626,27.06,0.714,40.59c0.036,5.507-0.869,11.021-0.774,16.523
	c0.08,4.649,3.812,7.96,8.152,8.126c4.244,0.163,8.142-3.078,8.61-7.66c0.709-6.938,1.441-13.903,1.551-20.866
	C101.667,325.444,101.505,310.608,101.505,295.774z"/>
<path style="&st0;" d="M180.975,43.74c0,6.631,0.248,13.439-0.097,20.217c-0.195,3.835-5.409,7.281-11.027,7.589
	c-8.135,0.446-16.285,0.729-24.431,0.834c-10.481,0.136-20.966,0.074-31.449,0.012c-8.629-0.051-13.228-4.707-13.041-13.267
	c0.107-4.927,0.498-9.847,0.794-15.386C128.114,43.74,154.35,43.74,180.975,43.74z"/>
<path style="&st0;" d="M202.561,425.392c-11.328-4.329-23.066-1.012-34.685-2.438c0-5.604-0.179-11.227,0.158-16.819
	c0.064-1.062,2.156-2.836,3.344-2.862c10.275-0.228,20.557-0.131,31.183-0.131C202.561,410.523,202.561,417.845,202.561,425.392z"/>
<path style="&st0;" d="M220.696,422.923c0-6.554,0-12.915,0-18.838c9.157,0,18.117-0.194,27.058,0.115
	c2.805,0.098,5.043,1.873,5.236,5.364c0.239,4.331,0.833,8.642,1.314,13.358C243.043,422.923,232.053,422.923,220.696,422.923z"/>
<path style="&st0;" d="M167.308,440.112c11.94,0,23.613,0,35.437,0c0,4.694,0,10.208,0,15.32c-11.044,0-22.109,0.109-33.165-0.165
	c-1.132-0.027-3.072-2.299-3.142-3.61C166.252,448.217,166.893,444.732,167.308,440.112z"/>
<path style="&st0;" d="M220.65,455.188c0-5.403,0-9.444,0-14.001c11.124,0,22.169,0,33.464,0c0,4.968,0,9.971,0,14.001
	C242.973,455.188,232.012,455.188,220.65,455.188z"/>
<path style="&st0;" d="M370.822,180.373c17.36,0.844,33.955,1.6,50.544,2.499c3.618,0.196,4.563,2.569,4.502,6.032
	c-0.167,9.496,0.632,8.459-8.402,8.483c-13.966,0.039-27.932-0.004-41.895,0.17c-3.596,0.045-5.009-1.21-4.798-4.822
	C370.991,189.007,370.822,185.257,370.822,180.373z"/>
<path style="&st0;" d="M395.303,215.965c0,3.918-0.059,7.669,0.02,11.416c0.059,2.754-1.411,4.093-3.918,4.154
	c-4.488,0.109-9.021,0.331-13.465-0.142c-5.902-0.627-9.381-8.43-6.297-13.486c0.261-0.428,0.766-0.888,1.23-0.987
	C380.093,215.387,387.344,214.487,395.303,215.965z"/>
<path style="&st0;" d="M395.853,161.486c-7.593,0-14.519-0.039-21.444,0.018c-2.998,0.024-3.663-1.673-3.51-4.212
	c0.384-6.39,3.421-9.383,11.255-11.033c12.13-2.556,13.73-1.284,13.7,10.878C395.849,158.704,395.853,160.271,395.853,161.486z"/>
</svg>
