<?xml version="1.0" encoding="utf-8"?>
<!-- Generator: Adobe Illustrator 16.0.0, SVG Export Plug-In . SVG Version: 6.00 Build 0)  -->
<!DOCTYPE svg PUBLIC "-//W3C//DTD SVG 1.1//EN" "http://www.w3.org/Graphics/SVG/1.1/DTD/svg11.dtd">
<svg version="1.1" id="Layer_1" xmlns="http://www.w3.org/2000/svg" xmlns:xlink="http://www.w3.org/1999/xlink" x="0px" y="0px"
	 width="1074px" height="513.218px" viewBox="-268.475 0 1074 513.218" enable-background="new -268.475 0 1074 513.218"
	 xml:space="preserve">
<path fill="#D1D3D4" d="M268.227,223.622c0,56.067,0.091,112.14-0.119,168.208c-0.024,6.779-2.087,13.527-2.468,20.332
	c-0.781,13.934-1.267,27.893-1.484,41.846c-0.17,10.773,0.584,21.666-2.969,32.018c-3.041,8.855-8.834,15.771-18.069,18.637
	c-14.757,4.58-29.774,6.744-45.416,6.756c-43.931,0.037-87.857,1.307-131.792,1.672c-34.356,0.285-68.721,0.035-103.081-0.148
	c-22.266-0.119-44.53-0.545-66.796-0.834c-23.429-0.307-46.875-0.154-70.28-1.059c-20.599-0.797-41.188-2.408-61.706-4.432
	c-7.56-0.746-15.063-3.271-20.563-9.449c-4.153-4.668-6.478-9.967-6.368-16.242c0.117-6.688,0.297-13.377,0.453-20.064
	c0.01-0.438,0.166-0.908,0.047-1.301c-4.69-15.424-2.005-31.244-2.284-46.865c-0.475-26.645,0.113-53.305-0.163-79.955
	c-0.479-46.271-0.44-92.574-2.154-138.805c-2.113-56.955-1.477-113.889-1.082-170.835c0.031-4.418,1.911-9.034,3.793-13.165
	c1.69-3.713,5.258-5.661,9.563-5.918c11.874-0.709,23.733-1.733,35.616-2.195c19.909-0.774,39.832-1.69,59.75-1.708
	C-29.729,0,99.887,0.216,229.504,0c13.776-0.023,23.535,6.188,31.739,15.979c1.994,2.379,3.063,5.94,3.552,9.113
	c6.369,41.409,2.58,83.117,3.383,124.692c0.475,24.604,0.087,49.224,0.087,73.837C268.251,223.622,268.238,223.622,268.227,223.622z
	 M-137.39,133.09c0,3.688-0.001,6.593,0,9.498c0.009,29.562,0.037,59.124,0.007,88.686c-0.005,5.178,1.159,9.538,6.575,11.603
	c0.648,0.247,1.233,0.784,1.72,1.305c2.741,2.94,5.94,4.198,9.814,2.554c4.174-1.771,5.659-5.353,5.64-9.534
	c-0.09-20.237-0.117-40.476-0.515-60.708c-0.261-13.231-1.092-26.453-1.732-39.676c-0.119-2.468,0.45-3.728,3.313-3.721
	c16.161,0.038,32.324-0.252,48.483-0.083c10.447,0.109,17.362,5.545,21.195,15.204c5.622,14.165,7.517,29.033,7.531,44.021
	c0.015,17.15-1.112,34.304-1.857,51.451c-0.232,5.356,2.534,9.546,7.27,10.35c4.563,0.775,8.785-2.524,9.863-7.834
	c0.433-2.132,0.818-4.306,0.893-6.473c0.484-14.105,1.095-28.212,1.246-42.323c0.193-17.968-1.361-35.752-7.733-52.774
	c-7.561-20.198-20.51-29.253-42.049-29.324c-14.851-0.049-29.702,0.126-44.553,0.173c-1.523,0.004-3.047-0.18-4.708-0.286
	c-0.367-8.051-0.708-15.542-1.058-23.205c3.112-0.396,5.421-0.627,7.708-0.991c8.591-1.367,17.227-2.524,25.743-4.264
	c5.355-1.094,9.788-4.299,11.636-9.612c2.039-5.861,3.666-11.921,4.813-18.018c0.978-5.199,1.021-10.574,1.566-16.903
	c11.533,0,22.872,0.009,34.209-0.004c3.931-0.004,7.872,0.091,11.792-0.133c4.935-0.282,8.376-3.811,8.458-8.318
	c0.08-4.34-3.031-7.869-7.702-8.586c-1.866-0.287-3.771-0.487-5.655-0.463c-10.042,0.128-20.082,0.429-30.124,0.505
	c-39.163,0.295-78.326,0.463-117.487,0.812c-18.484,0.165-36.965,0.605-55.447,0.969c-6.234,0.123-10.078,3.368-10.244,8.445
	c-0.165,5.03,3.482,8.555,9.739,8.99c4.059,0.282,8.15,0.134,12.227,0.14c10.004,0.014,20.009,0.004,29.813,0.004
	c0.779,8.447,1.924,17.067,2.285,25.721c0.45,10.801,9.522,17.647,18.974,18.96c9.604,1.334,19.193,2.775,29.633,4.291
	c-0.362,6.94-0.742,14.236-1.147,22.009c-2.006,0-3.578-0.05-5.146,0.008c-18.431,0.678-36.873-0.988-55.313,2.145
	c-17.133,2.912-30.39,10.414-36.743,26.878c-3.36,8.708-5.986,18.141-6.56,27.395c-1.413,22.785-1.494,45.654-2,68.492
	c-0.133,5.981,3.298,10.075,8.285,10.477c5.218,0.42,9.186-3.257,9.984-9.387c0.224-1.724,0.204-3.488,0.194-5.233
	c-0.046-7.717-0.255-15.435-0.175-23.151c0.175-16.998-0.942-34.063,2.86-50.876c4.047-17.902,10.535-25.743,28.727-27.412
	c11.119-1.02,22.309-1.354,33.476-1.743C-152.43,132.886-145.176,133.09-137.39,133.09z M201.148,165.874
	c-2.022,6.219-4.525,11.463-5.376,16.962c-3.199,20.687-3.735,41.345,2.175,61.792c1.913,6.617,4.946,9.737,10.151,8.94
	c5.012-0.768,7.632-5.138,7.012-11.719c-0.068-0.722-0.123-1.466-0.337-2.151c-4.722-15.058-3.609-30.521-2.979-45.905
	c0.227-5.506,0.93-11.153,4.101-15.665c6.188,3.193,11.862,6.482,17.832,9.09c5.141,2.244,10.682-0.18,12.458-4.731
	c1.831-4.69-0.389-8.732-5.917-11.37c-4.509-2.152-8.879-4.593-14.053-7.293c2.836-2.722,4.91-4.722,6.994-6.714
	c3.896-3.72,7.991-7.252,11.641-11.199c4.267-4.616,4.292-9.684,0.578-13.232c-3.764-3.596-8.408-3.07-13.128,1.31
	c-6.482,6.015-13.049,11.941-19.697,18.015c-7.417-8.643-11.981-18.542-13.919-29.634c-0.537-3.074,1.571-4.122,4.273-3.998
	c6.245,0.287,12.483,0.872,18.729,0.955c8,0.107,16.012,0.005,24.006-0.333c4.359-0.185,7.52-3.247,8.194-7.213
	c0.631-3.702-0.703-6.816-3.957-8.477c-1.945-0.993-4.455-1.194-6.714-1.209c-15.08-0.098-30.16-0.051-45.053-0.051
	c-1.029-6.765-0.317-7.884,5.245-8.636c6.913-0.934,13.844-1.764,20.785-2.44c11.565-1.125,12.813-8.75,11.628-17.388
	c-0.539-3.943-3.491-6.327-7.536-6.846c-3.935-0.505-5.879,1.865-6.881,5.264c-1.539,5.223-5.527,7.37-10.436,7.805
	c-4.299,0.38-8.823,0.786-12.909-0.21c-1.881-0.458-2.963-4.234-4.386-6.519c-2.503-4.019-7.954-5.091-11.025-1.44
	c-1.835,2.181-2.734,5.657-2.911,8.619c-0.412,6.896-0.132,13.832-0.132,20.095c-36.74,0.613-73.46,1.225-111.362,1.857
	c0-5.473,0.152-11.263-0.048-17.041c-0.167-4.845-3.55-8.491-7.916-9.089c-4.146-0.567-8.08,2.008-9.53,6.626
	c-0.684,2.178-0.938,4.547-1.028,6.844c-0.16,4.023-0.045,8.058-0.045,12.231c-3.337,0-6.165,0-9.271,0
	c-0.307-6.32-0.514-12.402-0.925-18.47c-0.336-4.949-3.898-8.332-8.419-8.294c-4.64,0.038-8.067,3.332-8.497,8.244
	c-0.126,1.447-0.089,2.91-0.092,4.366c-0.01,15.875-0.01,31.75-0.019,47.624c-0.001,3.039-0.377,6.126,0.038,9.105
	c0.594,4.263,3.756,6.924,7.652,7.048c4.34,0.138,7.383-1.914,8.483-6.049c0.736-2.762,0.784-5.728,0.966-8.613
	c0.359-5.748,0.6-11.504,0.888-17.234c3.619,0,6.735,0,10.271,0c0.949,23.634,1.886,46.929,2.827,70.416c-4.994,0-8.988,0-12.956,0
	c-0.354-7.308-0.569-14.283-1.08-21.235c-0.309-4.212-2.7-7.063-6.935-7.886c-3.838-0.747-7.085,0.702-8.842,4.114
	c-1.008,1.956-1.314,4.461-1.316,6.719c-0.017,21.41,0.143,42.82,0.139,64.23c0,3.912-0.789,7.831-0.703,11.735
	c0.098,4.473,3.393,7.849,7.49,8.395c3.959,0.527,7.813-2.132,9.157-6.47c0.469-1.512,0.797-3.118,0.865-4.695
	c0.35-8.135,0.641-16.273,0.855-24.413c0.109-4.174,0.02-8.353,0.02-12.702c4.832,0,9.125,0,13.8,0
	c0,9.112-0.103,17.939,0.038,26.762c0.087,5.52,0.567,11.032,0.82,16.551c0.154,3.407,1.979,5.007,5.278,5.001
	c2.179-0.003,4.364-0.051,6.529-0.259c2.969-0.285,4.781-1.898,5.111-4.975c0.556-5.175,1.671-10.358,1.578-15.521
	c-0.264-14.686-1.127-29.359-1.545-44.044c-0.487-17.166-0.786-34.338-1.096-51.509c-0.11-6.195-0.018-12.394-0.018-18.509
	c36.728-2.673,73.182-3.057,110.002-1.072C182.245,138.132,190.058,153.13,201.148,165.874z M-47.434,370.894
	c13.708,0,26.797,0.1,39.883-0.045c5.54-0.063,9.294-3.744,9.253-8.451c-0.04-4.795-3.808-8.51-9.183-8.561
	c-31.438-0.301-62.876-0.633-94.314-0.574c-3.803,0.008-7.948,1.713-11.312,3.689c-3.704,2.176-4.438,7.418-2.551,10.895
	c1.852,3.412,5.748,5.088,9.67,4.105c13.561-3.395,27.075,0.307,40.738-0.389c0,4.922,0,9.201,0,13.744
	c-8.604,0-16.894-0.195-25.168,0.074c-4.913,0.16-9.885,0.672-14.68,1.715c-6.723,1.459-11.386,5.859-12.022,12.762
	c-1.011,10.979-1.667,22.037-1.583,33.057c0.139,18.439,0.899,36.879,1.579,55.311c0.159,4.326,0.725,8.703,1.76,12.895
	c0.351,1.424,2.588,2.979,4.204,3.313c1.48,0.309,4.321-0.52,4.766-1.592c1.805-4.352,3.574-8.912,4.119-13.545
	c0.687-5.834,0.166-11.811,0.166-18.457c12.503,0,24.414,0,36.548,0c0,2.859-0.207,6.213,0.047,9.535
	c0.419,5.482,0.945,10.975,1.8,16.404c0.51,3.236,2.892,4.824,6.229,5.037c3.182,0.201,4.663-1.547,5.813-4.213
	c2.563-5.938,4.424-11.949,3.735-18.549c-0.234-2.244-0.038-4.533-0.038-6.926c11.625,0,22.587,0,33.863,0
	c0,1.031-0.002,2.619,0,4.207c0.01,5.969-0.354,11.975,0.216,17.891c0.225,2.332,2.163,5.871,3.982,6.352
	c2.633,0.691,7.298,0.082,8.531-1.725c2.193-3.215,3.32-7.727,3.393-11.723c0.289-16.4-0.871-32.873,0.244-49.199
	c0.793-11.574,0.869-22.865-1.139-34.234c-1.16-6.563-4.813-11.445-10.843-13.748c-5.059-1.93-10.559-3.18-15.956-3.637
	c-7.161-0.605-14.411-0.148-21.75-0.148C-47.434,380.603-47.434,376.304-47.434,370.894z M143.9,289.38
	c18.501,0,36.549-0.012,54.597,0.002c15.146,0.014,30.292,0.129,45.438,0.053c5.519-0.025,9.287-3.563,9.432-8.332
	c0.143-4.709-3.494-8.262-9.016-8.785c-0.869-0.082-1.746-0.104-2.618-0.111c-16.307-0.174-32.612-0.473-48.919-0.482
	c-42.233-0.025-84.469-0.094-126.7,0.236c-12.044,0.094-24.11,1.176-36.103,2.43c-5.457,0.572-8.602,5.268-7.963,9.748
	c0.709,4.98,4.66,7.592,10.67,7.139c8.124-0.611,16.244-1.566,24.377-1.676c21.258-0.283,42.521-0.186,63.78-0.24
	c1.562-0.004,3.122,0,5.216,0c0,7.146,0.114,13.805-0.145,20.447c-0.033,0.844-2.012,2.285-3.109,2.307
	c-8.873,0.166-17.752,0.07-26.629,0.029c-12.901-0.063-25.829-0.645-38.698-0.016c-6.672,0.324-13.496,2.096-19.782,4.459
	c-6.271,2.359-9.76,7.928-9.83,14.766c-0.178,17.037-0.273,34.084,0.111,51.113c0.147,6.57,2.399,12.752,8.537,17.418
	c1.68-2.33,3.888-4.188,4.484-6.467c1.355-5.174,2.408-10.525,2.708-15.855c0.76-13.496,1.084-27.02,1.486-40.537
	c0.17-5.729,0.202-6.309,6.117-6.584c15.978-0.74,31.971-1.486,47.961-1.543c27.654-0.094,55.313,0.443,82.97,0.494
	c14.262,0.027,28.525-0.396,42.787-0.662c4.104-0.074,6.47,1.232,6.705,5.916c0.551,11.01,1.39,22.008,2.367,32.988
	c0.384,4.307,1.352,8.574,2.273,12.813c0.198,0.906,1.272,2.131,2.091,2.258c0.832,0.127,2.265-0.689,2.703-1.492
	c1.593-2.91,3.232-5.877,4.219-9.021c4.119-13.135,5.87-26.438,3.852-40.289c-1.674-11.477-6.855-18.768-18.412-19.852
	c-12.551-1.18-25.277-0.65-37.926-0.58c-15.717,0.084-31.435,0.467-47.15,0.693c-0.542,0.008-1.087-0.266-1.882-0.475
	C143.9,304.408,143.9,297.193,143.9,289.38z M-79.845,287.689c0-0.016,0-0.031,0-0.049c18.922,0,37.845,0.041,56.768-0.029
	c5.062-0.02,9.195,1.793,10.516,6.703c1.095,4.072,1.688,8.693,0.902,12.762c-1.257,6.51-3.257,7.496-10.086,7.43
	c-29.115-0.283-58.229-0.736-87.344-0.844c-10.354-0.037-20.693,0.965-29.971,6.275c-4.331,2.479-8.534,5.41-9.239,10.902
	c-0.885,6.896-1.742,13.828-2.017,20.768c-0.322,8.119-0.094,16.266,0.058,24.396c0.24,12.908,0.924,25.814,0.868,38.719
	c-0.117,27.359-0.594,54.719-0.913,82.076c-0.057,4.826,3.119,8.832,7.407,9.414c4.54,0.615,8.544-2.016,9.765-6.811
	c0.676-2.654,1.036-5.453,1.078-8.195c0.392-25.764,0.785-51.529,0.971-77.295c0.118-16.455-0.147-32.912-0.172-49.367
	c-0.01-6.551,0.039-13.109,0.301-19.652c0.164-4.1,1.613-7.256,6.554-7.646c7.807-0.615,15.596-2.273,23.382-2.207
	c27.357,0.229,54.707,1.135,82.063,1.52c15.326,0.217,26.122-10.594,26.017-26.041c-0.052-7.387-0.918-14.783-1.703-22.143
	c-1.05-9.85-7.86-16.582-17.641-17.451c-8.102-0.721-16.229-1.541-24.349-1.584c-32.619-0.17-65.241-0.178-97.859,0.104
	c-4.141,0.037-8.561,1.547-12.311,3.443c-3.732,1.889-4.575,5.871-3.212,9.914c1.197,3.551,5.032,5.756,9.07,5.432
	c1.88-0.15,3.755-0.516,5.633-0.518C-116.821,287.675-98.332,287.689-79.845,287.689z M144.675,162.765
	c0.186-3.956,0.452-7.833,0.521-11.713c0.057-3.261,1.275-4.035,4.621-3.614c4.879,0.613,9.884,0.57,14.813,0.343
	c5-0.231,8.631-4.375,8.359-8.871c-0.28-4.633-3.091-6.885-8.688-6.965c-2.62-0.038-5.241-0.04-7.86-0.127
	c-16.282-0.543-32.575-1.752-48.843-1.47c-14.709,0.255-19.981,6.195-20.457,18.939c-0.677,18.172-1.215,36.353-1.498,54.534
	c-0.142,9.005,0.542,18.02,0.633,27.033c0.106,10.562,4.85,16.607,15.351,18.313c5.859,0.951,11.859,1.782,17.762,1.588
	c15.966-0.522,31.935-1.372,47.849-2.719c2.949-0.25,6.702-2.821,8.192-5.41c1.754-3.046-0.161-6.459-3.152-9.069
	c-3.479-3.036-7.204-4.745-11.796-4.711c-5.316,0.04-10.635,0.009-15.887,0.009c0-4.98,0-9.263,0-13.891
	c4.106,0,7.884,0.125,11.648-0.023c11.817-0.464,18.295-5.796,19.05-16.681c0.541-7.804,0.432-15.738-0.313-23.525
	c-0.837-8.751-6.363-12.574-15.05-12.024C155.165,163.013,150.364,162.765,144.675,162.765z M145.047,349.771
	c-0.016-0.223-0.029-0.443-0.045-0.666c-10.576,0.725-21.172,1.262-31.724,2.252c-5.797,0.543-11.512,1.773-15.612,6.68
	c-5.016,6-8.09,12.865-8.48,20.621c-1.062,21.053-1.822,42.121-2.722,63.184c-0.328,7.705-0.257,15.463-1.181,23.1
	c-1.227,10.141-0.619,19.994,2.425,29.699c0.886,2.818,2.001,5.693,5.899,5.16c3.715-0.508,6.198-2.635,6.909-6.27
	c0.606-3.113,0.885-6.328,0.938-9.504c0.392-22.633-1.056-45.25,3.402-67.814c2.313-11.709,1.204-24.076,1.853-36.133
	c0.313-5.781,1.79-11.455,9.977-11.631c15.688-0.334,31.374-0.814,47.063-1.133c2.676-0.053,4.028,1.27,4.117,4.328
	c0.382,13.08,0.547,26.197,1.726,39.219c1.003,11.084,3.46,22.027,4.912,33.08c0.612,4.648,1.352,9.693,0.2,14.08
	c-3.063,11.688-2.884,22.906,2.212,33.867c0.813,1.748,2.781,2.957,4.217,4.414c0.979-1.475,2.561-2.846,2.837-4.441
	c1.797-10.414,4.372-20.848,4.641-31.328c0.314-12.279-1.8-24.602-2.246-36.926c-0.62-17.137-0.667-34.293-0.963-51.439
	c-0.027-1.604,0.035-3.215-0.134-4.803c-0.583-5.449-2.43-10.58-7.51-13.049c-4.471-2.172-9.47-3.77-14.388-4.371
	C157.347,349.21,151.162,349.771,145.047,349.771z M-211.529,418.457c-0.044,0-0.089,0-0.133,0c0,22.705,0.013,45.408-0.01,68.113
	c-0.005,4.924,2.298,8.283,6.407,9.104c4.322,0.859,8.664-1.258,10.234-5.514c0.83-2.248,1.083-4.818,1.086-7.246
	c0.067-41.775,0.065-83.551,0.04-125.328c-0.001-2.9-0.112-5.826-0.484-8.701c-2.212-17.084-2.926-34.195-0.376-51.283
	c0.802-5.377,0.646-10.104-2.332-14.971c-2.803-4.584-5.667-7.084-9.736-6.314c-4.295,0.814-7.205,4.432-7.307,9.572
	c-0.101,5.088-0.016,10.188,0.191,15.271c0.761,18.725,1.951,37.436,2.327,56.166C-211.211,377.695-211.529,398.08-211.529,418.457z
	 M215.663,39.866c0-3.997,0.074-6.871-0.016-9.739c-0.146-4.633,0.025-9.332-0.718-13.875c-0.807-4.921-5.518-8.07-9.815-7.403
	c-4.852,0.752-7.355,4.679-7.158,10.298c0.233,6.618,0.056,13.25,0.056,20.921c-8.594-0.997-16.067-1.675-23.451-2.904
	c-1.26-0.21-2.848-2.687-3.044-4.271c-0.623-5.03-0.334-10.177-1.019-15.195c-0.631-4.633-4.69-7.55-8.954-7.246
	c-4.478,0.319-7.767,3.911-7.857,8.869c-0.089,4.798-0.069,9.605,0.101,14.401c0.409,11.576,6.001,18.44,17.457,20.544
	c8.521,1.564,17.187,2.347,26.06,3.514c0.209,0.987,0.618,2.381,0.771,3.802c0.172,1.583-0.034,3.21,0.183,4.783
	c0.662,4.842,2.561,6.134,8.724,6.148c5.334,0.012,6.484-0.899,7.196-5.904c0.442-3.122,0.771-6.259,1.173-9.547
	c1.848-0.094,3.449-0.026,4.998-0.278c8.563-1.388,17.248-2.333,25.63-4.458c6.702-1.7,9.987-7.052,10.423-14.037
	c0.331-5.295-1.878-9.07-6.179-10.196c-4.238-1.11-8.005,1.188-10.378,5.896c-0.685,1.356-2.144,3.025-3.46,3.24
	C229.684,38.324,222.915,38.989,215.663,39.866z M65.267,53.63c0,3.255-0.156,6.29,0.035,9.302c0.306,4.828,4.253,8.575,8.809,8.624
	c4.528,0.047,7.893-3.243,8.41-8.347c0.317-3.147,0.495-6.31,0.772-9.967c4.877,0,9.516,0.224,14.124-0.045
	c10.729-0.625,21.021-2.844,25.102-14.408c1.928-5.464,2.278-11.624,2.518-17.502c0.196-4.807-3.918-8.288-8.395-8.261
	c-4.446,0.027-7.946,3.521-8.432,8.391c-0.243,2.456-0.621,4.902-0.766,7.363c-0.247,4.253-2.814,6.458-6.659,6.683
	c-5.75,0.336-11.533,0.087-17.309,0.087c-0.391-5.886-0.461-11.412-1.261-16.83c-0.328-2.223-1.83-4.64-3.509-6.21
	c-2.649-2.482-6.08-2.717-9.327-0.83c-3.872,2.25-4.862,5.9-4.612,10.109c0.271,4.562,0.458,9.128,0.689,13.87
	c-2.6,0-4.344,0.07-6.079-0.011C44.979,34.98,44.954,33.455,45.456,21.76c0.22-5.11-2.931-8.792-7.3-9.431
	c-4.193-0.612-8.574,2.18-9.623,7.102c-3.195,14.968,2.282,28.508,17.982,32.172C52.402,52.977,58.614,52.957,65.267,53.63z
	 M-164.946,427.945c-0.094,0.002-0.188,0.004-0.282,0.008c0-2.766,0.151-5.537-0.03-8.289c-0.437-6.662-0.702-13.359-1.667-19.951
	c-0.681-4.646-4.903-7.377-9.183-6.934c-4.324,0.451-7.38,3.92-7.545,8.697c-0.065,1.889,0.057,3.781,0.144,5.67
	c0.849,18.432,1.899,36.855,2.473,55.297c0.242,7.762-0.392,15.563-0.868,23.332c-0.293,4.789,1.837,8.703,5.965,9.961
	c4.228,1.289,8.461-0.492,10.27-5.051c1.307-3.291,2.409-6.969,2.346-10.449C-163.637,462.802-164.364,445.375-164.946,427.945z
	 M-224.191,413.427c-0.123,0.006-0.245,0.008-0.367,0.014c0-1.746,0.008-3.492-0.003-5.24c-0.011-1.746,0.113-3.51-0.093-5.234
	c-0.632-5.291-4.532-8.945-9.169-8.748c-4.766,0.201-8.265,3.988-8.418,9.396c-0.108,3.777-0.011,7.568,0.141,11.348
	c0.866,21.65,1.766,43.301,2.694,64.949c0.074,1.729,0.242,3.506,0.733,5.152c1.159,3.887,3.819,6.109,7.964,6.238
	c3.937,0.123,7.146-2.303,8.244-6.438c0.476-1.793,0.612-3.738,0.551-5.604C-222.636,457.314-223.423,435.373-224.191,413.427z
	 M-224.349,330.808c0.028,0,0.056,0,0.084,0c0-9.316,0.209-18.641-0.074-27.951c-0.188-6.201-0.782-12.428-1.747-18.557
	c-0.845-5.375-4.842-8.342-9.353-7.816c-4.593,0.535-7.728,4.285-7.582,9.629c0.095,3.471,1.064,6.92,1.106,10.385
	c0.165,13.824,0.089,27.65,0.164,41.479c0.05,9.17,0.157,18.342,0.334,27.51c0.07,3.652,1.691,6.953,5.24,7.736
	c2.658,0.584,6.438,0.314,8.376-1.244c1.997-1.605,3.211-5.205,3.302-7.98C-224.138,352.943-224.349,341.873-224.349,330.808z
	 M-166.97,295.773c-0.094,0.002-0.189,0.004-0.283,0.004c-0.176-1.883-0.419-3.762-0.509-5.646
	c-0.097-2.035,0.035-4.082-0.086-6.113c-0.367-6.213-3.73-10.047-8.744-10.076c-5.185-0.031-8.693,4.031-8.766,10.406
	c-0.073,6.404-0.039,12.813,0.064,19.215c0.217,13.531,0.626,27.061,0.714,40.59c0.036,5.508-0.869,11.021-0.774,16.523
	c0.08,4.65,3.812,7.961,8.152,8.127c4.244,0.162,8.142-3.078,8.61-7.66c0.709-6.938,1.441-13.902,1.551-20.867
	C-166.808,325.443-166.97,310.607-166.97,295.773z"/>
<path fill="#D1D3D4" d="M-87.5,43.74c0,6.631,0.248,13.439-0.097,20.217c-0.195,3.835-5.409,7.281-11.027,7.589
	c-8.135,0.446-16.285,0.729-24.431,0.834c-10.481,0.136-20.966,0.074-31.449,0.012c-8.629-0.051-13.228-4.707-13.041-13.267
	c0.107-4.927,0.498-9.847,0.794-15.386C-140.361,43.74-114.125,43.74-87.5,43.74z"/>
<path fill="#D1D3D4" d="M-65.914,425.392c-11.328-4.33-23.066-1.012-34.685-2.438c0-5.605-0.179-11.229,0.158-16.82
	c0.064-1.061,2.156-2.836,3.344-2.861c10.275-0.229,20.557-0.131,31.183-0.131C-65.914,410.523-65.914,417.845-65.914,425.392z"/>
<path fill="#D1D3D4" d="M-47.779,422.923c0-6.555,0-12.916,0-18.838c9.157,0,18.117-0.195,27.058,0.115
	c2.805,0.098,5.043,1.873,5.236,5.363c0.239,4.33,0.833,8.643,1.314,13.357C-25.432,422.923-36.421,422.923-47.779,422.923z"/>
<path fill="#D1D3D4" d="M-101.167,440.113c11.94,0,23.613,0,35.437,0c0,4.693,0,10.207,0,15.318
	c-11.044,0-22.109,0.109-33.165-0.164c-1.132-0.027-3.072-2.299-3.142-3.609C-102.223,448.216-101.582,444.732-101.167,440.113z"/>
<path fill="#D1D3D4" d="M-47.825,455.187c0-5.402,0-9.443,0-14c11.124,0,22.169,0,33.464,0c0,4.969,0,9.971,0,14
	C-25.501,455.187-36.462,455.187-47.825,455.187z"/>
<path fill="#D1D3D4" d="M102.348,180.373c17.359,0.844,33.955,1.6,50.544,2.499c3.618,0.196,4.563,2.569,4.502,6.032
	c-0.167,9.496,0.632,8.459-8.402,8.483c-13.966,0.039-27.932-0.004-41.895,0.17c-3.597,0.045-5.009-1.21-4.798-4.822
	C102.517,189.006,102.348,185.256,102.348,180.373z"/>
<path fill="#D1D3D4" d="M126.828,215.964c0,3.918-0.059,7.669,0.021,11.416c0.059,2.754-1.411,4.093-3.918,4.154
	c-4.488,0.109-9.021,0.331-13.465-0.142c-5.902-0.627-9.382-8.43-6.298-13.486c0.262-0.428,0.767-0.888,1.23-0.987
	C111.618,215.387,118.869,214.486,126.828,215.964z"/>
<path fill="#D1D3D4" d="M127.378,161.485c-7.593,0-14.519-0.039-21.443,0.018c-2.998,0.024-3.663-1.673-3.51-4.212
	c0.384-6.39,3.421-9.383,11.255-11.033c12.13-2.556,13.729-1.284,13.699,10.878C127.374,158.704,127.378,160.271,127.378,161.485z"
	/>
<path fill="#ED1C24" d="M805.227,223.622c0,56.068,0.091,112.139-0.119,168.208c-0.024,6.779-2.087,13.527-2.468,20.332
	c-0.781,13.934-1.267,27.893-1.484,41.846c-0.17,10.773,0.584,21.666-2.969,32.018c-3.041,8.855-8.834,15.771-18.069,18.637
	c-14.757,4.58-29.774,6.744-45.416,6.756c-43.931,0.037-87.857,1.307-131.792,1.672c-34.356,0.285-68.721,0.035-103.081-0.148
	c-22.266-0.119-44.529-0.545-66.796-0.834c-23.429-0.307-46.875-0.154-70.28-1.059c-20.599-0.797-41.188-2.408-61.705-4.432
	c-7.561-0.746-15.063-3.271-20.563-9.449c-4.153-4.668-6.478-9.967-6.368-16.242c0.117-6.688,0.297-13.377,0.453-20.064
	c0.01-0.438,0.166-0.908,0.047-1.301c-4.689-15.424-2.005-31.244-2.283-46.865c-0.476-26.645,0.112-53.305-0.164-79.955
	c-0.479-46.271-0.439-92.574-2.154-138.805c-2.112-56.955-1.476-113.889-1.081-170.835c0.031-4.418,1.911-9.034,3.793-13.165
	c1.69-3.713,5.258-5.661,9.563-5.918c11.873-0.709,23.732-1.733,35.615-2.195c19.909-0.774,39.832-1.69,59.75-1.708
	C507.271,0,636.887,0.217,766.504,0c13.776-0.023,23.535,6.188,31.739,15.979c1.994,2.379,3.063,5.94,3.552,9.113
	c6.37,41.409,2.58,83.117,3.383,124.692c0.475,24.604,0.087,49.224,0.087,73.837C805.251,223.622,805.238,223.622,805.227,223.622z
	 M399.61,133.091c0,3.688-0.001,6.593,0,9.498c0.009,29.562,0.037,59.124,0.007,88.686c-0.005,5.178,1.159,9.538,6.575,11.604
	c0.647,0.246,1.233,0.783,1.72,1.305c2.741,2.939,5.94,4.197,9.814,2.554c4.174-1.771,5.658-5.353,5.64-9.534
	c-0.09-20.237-0.116-40.476-0.515-60.708c-0.262-13.231-1.092-26.453-1.732-39.676c-0.119-2.468,0.45-3.728,3.313-3.721
	c16.161,0.038,32.323-0.252,48.483-0.083c10.446,0.109,17.361,5.545,21.194,15.204c5.622,14.165,7.517,29.033,7.531,44.021
	c0.015,17.15-1.112,34.304-1.857,51.451c-0.231,5.356,2.534,9.546,7.271,10.351c4.563,0.774,8.785-2.524,9.863-7.834
	c0.433-2.133,0.817-4.307,0.893-6.474c0.484-14.105,1.095-28.212,1.246-42.323c0.193-17.968-1.361-35.752-7.733-52.774
	c-7.562-20.198-20.51-29.253-42.049-29.324c-14.851-0.049-29.702,0.126-44.553,0.173c-1.523,0.004-3.048-0.18-4.708-0.286
	c-0.367-8.051-0.708-15.542-1.059-23.205c3.112-0.396,5.422-0.627,7.709-0.991c8.59-1.367,17.227-2.524,25.742-4.264
	c5.355-1.094,9.788-4.299,11.637-9.612c2.039-5.861,3.666-11.921,4.813-18.018c0.979-5.199,1.021-10.574,1.566-16.903
	c11.533,0,22.871,0.009,34.209-0.004c3.931-0.004,7.871,0.091,11.791-0.133c4.936-0.282,8.377-3.811,8.459-8.318
	c0.08-4.34-3.031-7.869-7.703-8.586c-1.865-0.287-3.771-0.487-5.654-0.463c-10.042,0.128-20.082,0.429-30.124,0.505
	c-39.163,0.295-78.326,0.463-117.487,0.812c-18.484,0.165-36.965,0.605-55.447,0.969c-6.233,0.123-10.078,3.368-10.243,8.445
	c-0.165,5.03,3.481,8.555,9.739,8.99c4.059,0.282,8.149,0.134,12.227,0.14c10.004,0.014,20.009,0.004,29.813,0.004
	c0.779,8.447,1.924,17.067,2.285,25.721c0.45,10.801,9.522,17.647,18.975,18.96c9.604,1.334,19.193,2.775,29.633,4.291
	c-0.362,6.94-0.742,14.236-1.146,22.009c-2.007,0-3.578-0.05-5.146,0.008c-18.432,0.678-36.873-0.988-55.313,2.145
	c-17.134,2.912-30.391,10.414-36.744,26.878c-3.359,8.708-5.985,18.141-6.56,27.395c-1.413,22.785-1.494,45.654-2,68.492
	c-0.133,5.98,3.298,10.074,8.285,10.477c5.218,0.42,9.187-3.257,9.983-9.387c0.225-1.725,0.205-3.488,0.194-5.232
	c-0.046-7.718-0.255-15.436-0.175-23.152c0.175-16.998-0.941-34.063,2.859-50.876c4.047-17.902,10.535-25.743,28.728-27.412
	c11.119-1.02,22.31-1.354,33.476-1.743C384.57,132.887,391.824,133.091,399.61,133.091z M738.148,165.874
	c-2.022,6.219-4.525,11.463-5.376,16.962c-3.199,20.687-3.735,41.345,2.175,61.792c1.913,6.617,4.946,9.736,10.151,8.939
	c5.012-0.768,7.632-5.138,7.012-11.719c-0.068-0.723-0.123-1.467-0.337-2.15c-4.722-15.059-3.609-30.522-2.979-45.906
	c0.227-5.506,0.93-11.153,4.101-15.665c6.188,3.193,11.862,6.482,17.832,9.09c5.141,2.244,10.682-0.18,12.458-4.731
	c1.831-4.69-0.389-8.732-5.917-11.37c-4.509-2.152-8.879-4.593-14.053-7.293c2.836-2.722,4.91-4.722,6.994-6.714
	c3.896-3.72,7.991-7.252,11.641-11.199c4.267-4.616,4.292-9.684,0.578-13.232c-3.764-3.596-8.408-3.07-13.128,1.31
	c-6.482,6.015-13.049,11.941-19.697,18.015c-7.417-8.643-11.981-18.542-13.919-29.634c-0.537-3.074,1.571-4.122,4.273-3.998
	c6.245,0.287,12.483,0.872,18.729,0.955c8,0.107,16.012,0.005,24.006-0.333c4.359-0.185,7.52-3.247,8.194-7.213
	c0.631-3.702-0.703-6.816-3.957-8.477c-1.945-0.993-4.455-1.194-6.714-1.209c-15.08-0.098-30.16-0.051-45.053-0.051
	c-1.029-6.765-0.317-7.884,5.245-8.636c6.913-0.934,13.844-1.764,20.785-2.44c11.565-1.125,12.813-8.75,11.628-17.388
	c-0.539-3.943-3.491-6.327-7.536-6.846c-3.935-0.505-5.879,1.865-6.881,5.264c-1.539,5.223-5.527,7.37-10.436,7.805
	c-4.299,0.38-8.823,0.786-12.909-0.21c-1.881-0.458-2.963-4.234-4.386-6.519c-2.503-4.019-7.954-5.091-11.025-1.44
	c-1.835,2.181-2.734,5.657-2.911,8.619c-0.412,6.896-0.132,13.832-0.132,20.095c-36.74,0.613-73.46,1.225-111.362,1.857
	c0-5.473,0.152-11.263-0.048-17.041c-0.167-4.845-3.55-8.491-7.916-9.089c-4.146-0.567-8.08,2.008-9.53,6.626
	c-0.684,2.178-0.938,4.547-1.028,6.844c-0.16,4.023-0.045,8.058-0.045,12.231c-3.337,0-6.165,0-9.271,0
	c-0.307-6.32-0.514-12.402-0.925-18.47c-0.336-4.949-3.898-8.332-8.419-8.294c-4.64,0.038-8.067,3.332-8.497,8.244
	c-0.126,1.447-0.089,2.91-0.092,4.366c-0.01,15.875-0.01,31.75-0.019,47.624c-0.001,3.039-0.377,6.126,0.038,9.105
	c0.594,4.263,3.756,6.924,7.652,7.048c4.34,0.138,7.383-1.914,8.483-6.049c0.736-2.762,0.784-5.728,0.966-8.613
	c0.359-5.748,0.6-11.504,0.888-17.234c3.619,0,6.735,0,10.271,0c0.949,23.634,1.886,46.929,2.827,70.416c-4.994,0-8.988,0-12.956,0
	c-0.354-7.308-0.569-14.283-1.08-21.235c-0.309-4.212-2.7-7.063-6.935-7.886c-3.838-0.747-7.085,0.702-8.842,4.114
	c-1.008,1.956-1.314,4.461-1.316,6.719c-0.017,21.41,0.143,42.82,0.139,64.23c0,3.912-0.789,7.831-0.703,11.735
	c0.098,4.473,3.393,7.849,7.49,8.396c3.959,0.526,7.813-2.133,9.157-6.471c0.469-1.512,0.797-3.118,0.865-4.695
	c0.35-8.135,0.641-16.273,0.855-24.413c0.109-4.174,0.02-8.353,0.02-12.702c4.832,0,9.125,0,13.8,0
	c0,9.112-0.103,17.939,0.038,26.762c0.087,5.521,0.567,11.032,0.82,16.551c0.154,3.407,1.979,5.007,5.278,5.001
	c2.179-0.003,4.364-0.051,6.529-0.259c2.969-0.285,4.781-1.897,5.111-4.976c0.556-5.174,1.671-10.357,1.578-15.521
	c-0.264-14.686-1.127-29.359-1.545-44.044c-0.487-17.166-0.786-34.338-1.096-51.509c-0.11-6.195-0.018-12.394-0.018-18.509
	c36.728-2.673,73.182-3.057,110.002-1.072C719.245,138.133,727.058,153.131,738.148,165.874z M489.566,370.895
	c13.708,0,26.797,0.099,39.883-0.046c5.54-0.063,9.294-3.744,9.253-8.451c-0.04-4.794-3.808-8.51-9.183-8.561
	c-31.438-0.301-62.876-0.633-94.314-0.573c-3.803,0.007-7.947,1.713-11.312,3.688c-3.704,2.176-4.438,7.418-2.552,10.896
	c1.853,3.411,5.748,5.087,9.67,4.104c13.562-3.395,27.076,0.307,40.738-0.388c0,4.922,0,9.2,0,13.744
	c-8.604,0-16.894-0.196-25.168,0.073c-4.912,0.16-9.885,0.672-14.68,1.715c-6.723,1.459-11.386,5.859-12.021,12.762
	c-1.012,10.979-1.668,22.037-1.584,33.057c0.14,18.439,0.899,36.879,1.58,55.311c0.158,4.326,0.725,8.703,1.76,12.895
	c0.351,1.424,2.588,2.979,4.203,3.313c1.48,0.309,4.322-0.52,4.767-1.592c1.806-4.352,3.573-8.912,4.119-13.545
	c0.687-5.834,0.166-11.811,0.166-18.457c12.503,0,24.413,0,36.548,0c0,2.859-0.207,6.213,0.047,9.535
	c0.419,5.482,0.945,10.975,1.801,16.404c0.51,3.236,2.891,4.824,6.229,5.037c3.182,0.201,4.662-1.547,5.813-4.213
	c2.563-5.938,4.424-11.949,3.735-18.549c-0.233-2.244-0.038-4.533-0.038-6.926c11.625,0,22.587,0,33.863,0
	c0,1.031-0.002,2.619,0,4.207c0.01,5.969-0.354,11.975,0.216,17.891c0.226,2.332,2.163,5.871,3.981,6.352
	c2.633,0.691,7.299,0.082,8.531-1.725c2.193-3.215,3.32-7.727,3.393-11.723c0.289-16.4-0.871-32.873,0.244-49.199
	c0.793-11.574,0.869-22.865-1.139-34.234c-1.16-6.563-4.813-11.445-10.843-13.747c-5.06-1.931-10.56-3.18-15.956-3.638
	c-7.161-0.605-14.411-0.148-21.75-0.148C489.566,380.604,489.566,376.305,489.566,370.895z M680.9,289.38
	c18.501,0,36.549-0.012,54.597,0.002c15.146,0.014,30.292,0.129,45.438,0.054c5.519-0.026,9.287-3.563,9.432-8.332
	c0.143-4.71-3.494-8.263-9.016-8.785c-0.869-0.083-1.746-0.104-2.618-0.112c-16.307-0.174-32.612-0.473-48.919-0.481
	c-42.233-0.026-84.469-0.095-126.7,0.235c-12.044,0.095-24.11,1.176-36.103,2.431c-5.457,0.571-8.602,5.267-7.963,9.747
	c0.709,4.98,4.66,7.593,10.67,7.14c8.124-0.612,16.244-1.567,24.377-1.676c21.258-0.283,42.521-0.187,63.78-0.24
	c1.562-0.004,3.122,0,5.216,0c0,7.146,0.114,13.804-0.145,20.447c-0.033,0.843-2.012,2.285-3.109,2.306
	c-8.873,0.166-17.752,0.07-26.629,0.029c-12.901-0.063-25.829-0.645-38.698-0.016c-6.672,0.324-13.496,2.096-19.782,4.459
	c-6.271,2.359-9.76,7.928-9.83,14.766c-0.178,17.037-0.273,34.084,0.111,51.113c0.147,6.57,2.399,12.753,8.537,17.418
	c1.68-2.33,3.888-4.188,4.484-6.467c1.355-5.174,2.408-10.524,2.708-15.854c0.76-13.497,1.084-27.021,1.486-40.537
	c0.17-5.729,0.202-6.31,6.117-6.584c15.978-0.741,31.971-1.487,47.961-1.543c27.654-0.095,55.313,0.442,82.97,0.494
	c14.262,0.026,28.525-0.397,42.787-0.663c4.104-0.074,6.47,1.232,6.705,5.917c0.551,11.009,1.39,22.007,2.367,32.987
	c0.384,4.307,1.352,8.574,2.273,12.813c0.198,0.907,1.272,2.131,2.091,2.258c0.832,0.127,2.265-0.689,2.703-1.492
	c1.593-2.909,3.232-5.877,4.219-9.021c4.119-13.135,5.87-26.438,3.852-40.289c-1.674-11.478-6.855-18.769-18.412-19.853
	c-12.551-1.18-25.277-0.649-37.926-0.58c-15.717,0.085-31.435,0.467-47.15,0.693c-0.542,0.008-1.087-0.266-1.882-0.474
	C680.9,304.408,680.9,297.194,680.9,289.38z M457.155,287.69c0-0.017,0-0.032,0-0.05c18.922,0,37.845,0.042,56.769-0.028
	c5.062-0.021,9.194,1.792,10.516,6.703c1.095,4.072,1.688,8.692,0.902,12.761c-1.258,6.51-3.258,7.496-10.086,7.43
	c-29.115-0.282-58.229-0.736-87.344-0.844c-10.354-0.037-20.693,0.965-29.972,6.275c-4.331,2.479-8.534,5.411-9.239,10.902
	c-0.885,6.897-1.742,13.828-2.017,20.769c-0.322,8.119-0.095,16.265,0.058,24.396c0.24,12.908,0.924,25.814,0.868,38.719
	c-0.117,27.359-0.594,54.719-0.913,82.076c-0.057,4.826,3.119,8.832,7.407,9.414c4.54,0.615,8.544-2.016,9.765-6.811
	c0.676-2.654,1.036-5.453,1.078-8.195c0.393-25.764,0.785-51.529,0.971-77.295c0.119-16.455-0.146-32.912-0.172-49.367
	c-0.01-6.551,0.039-13.108,0.301-19.652c0.164-4.1,1.613-7.256,6.555-7.646c7.807-0.615,15.596-2.272,23.382-2.207
	c27.356,0.229,54.707,1.135,82.063,1.521c15.326,0.216,26.121-10.595,26.017-26.042c-0.052-7.387-0.918-14.782-1.703-22.143
	c-1.05-9.85-7.86-16.582-17.642-17.451c-8.102-0.721-16.229-1.541-24.348-1.584c-32.619-0.17-65.242-0.178-97.859,0.104
	c-4.141,0.036-8.562,1.547-12.312,3.442c-3.731,1.889-4.575,5.871-3.212,9.914c1.197,3.552,5.032,5.757,9.07,5.432
	c1.88-0.15,3.755-0.516,5.633-0.518C420.18,287.675,438.668,287.69,457.155,287.69z M681.675,162.765
	c0.186-3.956,0.452-7.833,0.521-11.713c0.057-3.261,1.275-4.035,4.621-3.614c4.879,0.613,9.884,0.57,14.813,0.343
	c5-0.231,8.631-4.375,8.359-8.871c-0.28-4.633-3.091-6.885-8.688-6.965c-2.62-0.038-5.241-0.04-7.86-0.127
	c-16.282-0.543-32.575-1.752-48.843-1.47c-14.709,0.255-19.981,6.195-20.457,18.939c-0.677,18.172-1.215,36.353-1.498,54.534
	c-0.142,9.005,0.542,18.02,0.633,27.033c0.106,10.562,4.85,16.606,15.351,18.313c5.859,0.951,11.859,1.781,17.762,1.588
	c15.966-0.522,31.935-1.373,47.849-2.719c2.949-0.25,6.702-2.822,8.192-5.41c1.754-3.047-0.161-6.459-3.152-9.069
	c-3.479-3.036-7.204-4.745-11.796-4.711c-5.316,0.04-10.635,0.009-15.887,0.009c0-4.98,0-9.263,0-13.891
	c4.106,0,7.884,0.125,11.648-0.023c11.817-0.464,18.295-5.796,19.05-16.681c0.541-7.804,0.432-15.738-0.313-23.525
	c-0.837-8.751-6.363-12.574-15.05-12.024C692.165,163.013,687.364,162.765,681.675,162.765z M682.047,349.771
	c-0.016-0.223-0.029-0.443-0.045-0.666c-10.576,0.725-21.172,1.262-31.724,2.252c-5.797,0.544-11.512,1.773-15.612,6.68
	c-5.016,6-8.09,12.866-8.48,20.621c-1.062,21.053-1.822,42.121-2.722,63.184c-0.328,7.705-0.257,15.463-1.181,23.1
	c-1.227,10.141-0.619,19.994,2.425,29.699c0.886,2.818,2.001,5.693,5.899,5.16c3.715-0.508,6.198-2.635,6.909-6.27
	c0.606-3.113,0.885-6.328,0.938-9.504c0.392-22.633-1.056-45.25,3.402-67.814c2.313-11.709,1.204-24.075,1.853-36.133
	c0.313-5.781,1.79-11.455,9.977-11.631c15.688-0.334,31.374-0.813,47.063-1.132c2.676-0.054,4.028,1.269,4.117,4.327
	c0.382,13.081,0.547,26.197,1.726,39.219c1.003,11.084,3.46,22.027,4.912,33.08c0.612,4.648,1.352,9.693,0.2,14.08
	c-3.063,11.688-2.884,22.906,2.212,33.867c0.813,1.748,2.781,2.957,4.217,4.414c0.979-1.475,2.561-2.846,2.837-4.441
	c1.797-10.414,4.372-20.848,4.641-31.328c0.314-12.279-1.8-24.602-2.246-36.926c-0.62-17.137-0.667-34.293-0.963-51.439
	c-0.027-1.603,0.035-3.215-0.134-4.803c-0.583-5.449-2.43-10.58-7.51-13.049c-4.471-2.172-9.47-3.77-14.388-4.371
	C694.347,349.21,688.162,349.771,682.047,349.771z M325.471,418.457c-0.043,0-0.088,0-0.133,0c0,22.705,0.014,45.408-0.01,68.113
	c-0.005,4.924,2.299,8.283,6.407,9.104c4.322,0.859,8.664-1.258,10.233-5.514c0.83-2.248,1.084-4.818,1.086-7.246
	c0.068-41.775,0.066-83.551,0.041-125.328c-0.002-2.9-0.112-5.826-0.484-8.701c-2.212-17.084-2.926-34.194-0.376-51.283
	c0.802-5.377,0.646-10.104-2.332-14.971c-2.803-4.584-5.667-7.084-9.735-6.313c-4.295,0.813-7.205,4.431-7.308,9.572
	c-0.101,5.088-0.017,10.187,0.19,15.271c0.762,18.725,1.951,37.437,2.328,56.166C325.789,377.695,325.471,398.08,325.471,418.457z
	 M752.663,39.866c0-3.997,0.074-6.871-0.016-9.739c-0.146-4.633,0.025-9.332-0.718-13.875c-0.807-4.921-5.518-8.07-9.815-7.403
	c-4.852,0.752-7.355,4.679-7.158,10.298c0.233,6.618,0.056,13.25,0.056,20.921c-8.594-0.997-16.067-1.675-23.451-2.904
	c-1.26-0.21-2.848-2.687-3.044-4.271c-0.623-5.03-0.334-10.177-1.019-15.195c-0.631-4.633-4.69-7.55-8.954-7.246
	c-4.478,0.319-7.767,3.911-7.857,8.869c-0.089,4.798-0.069,9.605,0.101,14.401c0.409,11.576,6.001,18.44,17.457,20.544
	c8.521,1.564,17.187,2.347,26.06,3.514c0.209,0.987,0.618,2.381,0.771,3.802c0.172,1.583-0.034,3.21,0.183,4.783
	c0.662,4.842,2.561,6.134,8.724,6.148c5.334,0.012,6.484-0.899,7.196-5.904c0.442-3.122,0.771-6.259,1.173-9.547
	c1.848-0.094,3.449-0.026,4.998-0.278c8.563-1.388,17.248-2.333,25.63-4.458c6.702-1.7,9.987-7.052,10.423-14.037
	c0.331-5.295-1.878-9.07-6.179-10.196c-4.238-1.11-8.005,1.188-10.378,5.896c-0.685,1.356-2.144,3.025-3.46,3.24
	C766.684,38.324,759.915,38.989,752.663,39.866z M602.267,53.631c0,3.255-0.156,6.29,0.035,9.302
	c0.306,4.828,4.253,8.575,8.809,8.624c4.528,0.047,7.893-3.243,8.41-8.347c0.317-3.147,0.495-6.31,0.772-9.967
	c4.877,0,9.516,0.224,14.124-0.045c10.729-0.625,21.021-2.844,25.102-14.408c1.928-5.464,2.278-11.624,2.518-17.502
	c0.196-4.807-3.918-8.288-8.395-8.261c-4.446,0.027-7.946,3.521-8.432,8.391c-0.243,2.456-0.621,4.902-0.766,7.363
	c-0.247,4.253-2.814,6.458-6.659,6.683c-5.75,0.336-11.533,0.087-17.309,0.087c-0.391-5.886-0.461-11.412-1.261-16.83
	c-0.328-2.223-1.83-4.64-3.509-6.21c-2.649-2.482-6.08-2.717-9.327-0.83c-3.872,2.25-4.862,5.9-4.612,10.109
	c0.271,4.562,0.458,9.128,0.689,13.87c-2.6,0-4.344,0.07-6.079-0.011c-14.399-0.668-14.424-2.194-13.922-13.888
	c0.22-5.11-2.931-8.792-7.3-9.431c-4.193-0.612-8.574,2.18-9.623,7.102c-3.195,14.968,2.282,28.508,17.982,32.172
	C589.402,52.977,595.614,52.957,602.267,53.631z M372.055,427.945c-0.094,0.002-0.188,0.004-0.282,0.008
	c0-2.766,0.151-5.537-0.03-8.289c-0.438-6.662-0.701-13.359-1.667-19.951c-0.681-4.646-4.903-7.377-9.183-6.933
	c-4.324,0.451-7.381,3.919-7.545,8.696c-0.065,1.889,0.057,3.781,0.144,5.67c0.849,18.432,1.899,36.855,2.474,55.297
	c0.242,7.762-0.393,15.563-0.869,23.332c-0.293,4.789,1.838,8.703,5.966,9.961c4.228,1.289,8.461-0.492,10.271-5.051
	c1.307-3.291,2.408-6.969,2.346-10.449C373.363,462.802,372.637,445.375,372.055,427.945z M312.809,413.427
	c-0.123,0.006-0.245,0.008-0.367,0.014c0-1.746,0.008-3.492-0.003-5.24c-0.011-1.746,0.112-3.51-0.093-5.234
	c-0.633-5.291-4.532-8.944-9.17-8.748c-4.766,0.201-8.264,3.988-8.418,9.396c-0.107,3.777-0.01,7.568,0.142,11.348
	c0.866,21.65,1.767,43.301,2.694,64.949c0.074,1.729,0.242,3.506,0.732,5.152c1.159,3.887,3.819,6.109,7.965,6.238
	c3.937,0.123,7.146-2.303,8.243-6.438c0.476-1.793,0.612-3.738,0.552-5.604C314.364,457.314,313.577,435.373,312.809,413.427z
	 M312.651,330.809c0.028,0,0.056,0,0.084,0c0-9.317,0.209-18.642-0.073-27.951c-0.188-6.202-0.783-12.429-1.748-18.558
	c-0.845-5.375-4.842-8.342-9.353-7.815c-4.593,0.535-7.728,4.284-7.582,9.629c0.095,3.47,1.063,6.919,1.106,10.384
	c0.164,13.824,0.088,27.651,0.164,41.479c0.049,9.171,0.156,18.342,0.334,27.51c0.069,3.653,1.69,6.953,5.239,7.736
	c2.658,0.585,6.438,0.314,8.376-1.243c1.997-1.606,3.211-5.206,3.303-7.981C312.862,352.943,312.651,341.873,312.651,330.809z
	 M370.03,295.774c-0.094,0.001-0.188,0.003-0.282,0.004c-0.177-1.883-0.42-3.763-0.51-5.647c-0.097-2.034,0.035-4.082-0.086-6.112
	c-0.367-6.213-3.73-10.048-8.744-10.077c-5.185-0.031-8.693,4.031-8.766,10.406c-0.073,6.404-0.039,12.813,0.064,19.216
	c0.217,13.53,0.625,27.06,0.713,40.59c0.037,5.507-0.869,11.021-0.773,16.522c0.08,4.65,3.813,7.961,8.152,8.127
	c4.244,0.162,8.142-3.078,8.609-7.66c0.709-6.938,1.441-13.902,1.551-20.866C370.192,325.444,370.03,310.608,370.03,295.774z"/>
<path fill="#ED1C24" d="M449.5,43.74c0,6.631,0.248,13.439-0.097,20.217c-0.194,3.835-5.409,7.281-11.026,7.589
	c-8.136,0.446-16.285,0.729-24.432,0.834c-10.48,0.136-20.966,0.074-31.449,0.012c-8.629-0.051-13.228-4.707-13.041-13.267
	c0.107-4.927,0.498-9.847,0.795-15.386C396.639,43.74,422.875,43.74,449.5,43.74z"/>
<path fill="#ED1C24" d="M471.086,425.392c-11.328-4.33-23.065-1.012-34.685-2.438c0-5.605-0.179-11.229,0.158-16.82
	c0.063-1.061,2.155-2.836,3.344-2.861c10.274-0.229,20.558-0.131,31.183-0.131C471.086,410.523,471.086,417.845,471.086,425.392z"/>
<path fill="#ED1C24" d="M489.221,422.923c0-6.555,0-12.916,0-18.838c9.158,0,18.117-0.195,27.059,0.115
	c2.805,0.098,5.043,1.873,5.236,5.363c0.238,4.33,0.832,8.643,1.314,13.357C511.568,422.923,500.578,422.923,489.221,422.923z"/>
<path fill="#ED1C24" d="M435.834,440.113c11.939,0,23.612,0,35.437,0c0,4.693,0,10.207,0,15.318
	c-11.044,0-22.108,0.109-33.165-0.164c-1.133-0.027-3.072-2.299-3.143-3.609C434.777,448.216,435.418,444.732,435.834,440.113z"/>
<path fill="#ED1C24" d="M489.176,455.187c0-5.402,0-9.443,0-14c11.123,0,22.168,0,33.463,0c0,4.969,0,9.971,0,14
	C511.498,455.187,500.537,455.187,489.176,455.187z"/>
<path fill="#ED1C24" d="M639.348,180.373c17.359,0.844,33.955,1.6,50.544,2.499c3.618,0.196,4.563,2.569,4.502,6.032
	c-0.167,9.496,0.632,8.459-8.402,8.483c-13.966,0.039-27.932-0.004-41.895,0.17c-3.597,0.045-5.009-1.21-4.798-4.822
	C639.517,189.007,639.348,185.257,639.348,180.373z"/>
<path fill="#ED1C24" d="M663.828,215.965c0,3.918-0.059,7.669,0.021,11.416c0.059,2.754-1.411,4.093-3.918,4.154
	c-4.488,0.109-9.021,0.331-13.465-0.142c-5.902-0.627-9.382-8.43-6.298-13.486c0.262-0.428,0.767-0.888,1.23-0.987
	C648.618,215.387,655.869,214.487,663.828,215.965z"/>
<path fill="#ED1C24" d="M664.378,161.486c-7.593,0-14.519-0.039-21.443,0.018c-2.998,0.024-3.663-1.673-3.51-4.212
	c0.384-6.39,3.421-9.383,11.255-11.033c12.13-2.556,13.729-1.284,13.699,10.878C664.374,158.704,664.378,160.271,664.378,161.486z"
	/>
</svg>
