<?xml version="1.0" encoding="utf-8"?>
<!-- Generator: Adobe Illustrator 16.0.0, SVG Export Plug-In . SVG Version: 6.00 Build 0)  -->
<!DOCTYPE svg PUBLIC "-//W3C//DTD SVG 1.1//EN" "http://www.w3.org/Graphics/SVG/1.1/DTD/svg11.dtd" [
	<!ENTITY st0 "fill-rule:evenodd;clip-rule:evenodd;">
]>
<svg version="1.1" id="Layer_1" xmlns="http://www.w3.org/2000/svg" xmlns:xlink="http://www.w3.org/1999/xlink" x="0px" y="0px"
	 width="1024px" height="1024px" viewBox="0 0 1024 1024" style="enable-background:new 0 0 1024 1024;" xml:space="preserve">
<path style="&st0;" d="M0.5,363.808h64v295.385h-64V363.808z"/>
<path style="&st0;" d="M96.5,127.5v768h512v-768H96.5z M320.5,659.192h-192V363.808h192V659.192z M576.5,659.192h-192V363.808h192
	V659.192z"/>
<path style="&st0;" d="M640.5,363.808v295.385h192V363.808H640.5z"/>
<path style="&st0;" d="M896.5,363.808v295.385h128V363.808H896.5z"/>
<path style="&st0;" d="M640.5,127.5c0,0,65,0,96,0c16,0,64,22.154,64,44.308c0-22.154,48-44.308,64-44.308c32,0,96,0,96,0v59.077
	c0,0-81,0-96,0s-32,15.692-32,29.539v590.769c0,14.77,17,29.539,32,29.539s96,0,96,0V895.5h-96c-32,0-64-16.615-64-44.308
	c0,27.692-32,44.308-64,44.308h-96v-59.076h96c17,0,32-16.616,32-29.539V216.116c0-13.846-15-29.539-32-29.539h-96V127.5z"/>
</svg>
